<mxfile host="app.diagrams.net" modified="2023-11-05T21:44:54.522Z" agent="Mozilla/5.0 (Windows NT 10.0; Win64; x64) AppleWebKit/537.36 (KHTML, like Gecko) Chrome/112.0.0.0 Safari/537.36" etag="lkmJaYVQFbJdM_y_nKjI" version="22.0.8" type="github">
  <diagram id="Ht1M8jgEwFfnCIfOTk4-" name="Page-1">
    <mxGraphModel dx="1434" dy="764" grid="1" gridSize="10" guides="1" tooltips="1" connect="1" arrows="1" fold="1" page="1" pageScale="1" pageWidth="827" pageHeight="1169" math="0" shadow="0">
      <root>
        <mxCell id="0" />
        <mxCell id="1" parent="0" />
        <mxCell id="imyj3Zp-e5OPN9J0XzXH-4" value="AWS Cloud" style="points=[[0,0],[0.25,0],[0.5,0],[0.75,0],[1,0],[1,0.25],[1,0.5],[1,0.75],[1,1],[0.75,1],[0.5,1],[0.25,1],[0,1],[0,0.75],[0,0.5],[0,0.25]];outlineConnect=0;gradientColor=none;html=1;whiteSpace=wrap;fontSize=12;fontStyle=0;container=1;pointerEvents=0;collapsible=0;recursiveResize=0;shape=mxgraph.aws4.group;grIcon=mxgraph.aws4.group_aws_cloud_alt;strokeColor=#232F3E;fillColor=none;verticalAlign=top;align=left;spacingLeft=30;fontColor=#232F3E;dashed=0;" parent="1" vertex="1">
          <mxGeometry x="40" y="40" width="840" height="750" as="geometry" />
        </mxCell>
        <mxCell id="imyj3Zp-e5OPN9J0XzXH-5" value="Region" style="points=[[0,0],[0.25,0],[0.5,0],[0.75,0],[1,0],[1,0.25],[1,0.5],[1,0.75],[1,1],[0.75,1],[0.5,1],[0.25,1],[0,1],[0,0.75],[0,0.5],[0,0.25]];outlineConnect=0;gradientColor=none;html=1;whiteSpace=wrap;fontSize=12;fontStyle=0;container=1;pointerEvents=0;collapsible=0;recursiveResize=0;shape=mxgraph.aws4.group;grIcon=mxgraph.aws4.group_region;strokeColor=#147EBA;fillColor=none;verticalAlign=top;align=left;spacingLeft=30;fontColor=#147EBA;dashed=1;" parent="imyj3Zp-e5OPN9J0XzXH-4" vertex="1">
          <mxGeometry x="30" y="30" width="780" height="690" as="geometry" />
        </mxCell>
        <mxCell id="5R6aJjAGNMI5OeQ1DKZp-4" value="Availability Zone" style="fillColor=none;strokeColor=#147EBA;dashed=1;verticalAlign=top;fontStyle=0;fontColor=#147EBA;whiteSpace=wrap;html=1;" parent="imyj3Zp-e5OPN9J0XzXH-5" vertex="1">
          <mxGeometry x="130" y="10" width="250" height="660" as="geometry" />
        </mxCell>
        <mxCell id="B-BGR8SFoohpfeiMu-X7-7" value="Availability Zone" style="fillColor=none;strokeColor=#147EBA;dashed=1;verticalAlign=top;fontStyle=0;fontColor=#147EBA;whiteSpace=wrap;html=1;" vertex="1" parent="imyj3Zp-e5OPN9J0XzXH-5">
          <mxGeometry x="480" y="10" width="250" height="660" as="geometry" />
        </mxCell>
        <mxCell id="imyj3Zp-e5OPN9J0XzXH-8" value="Public subnet&lt;br&gt;10.0.1.0/24" style="points=[[0,0],[0.25,0],[0.5,0],[0.75,0],[1,0],[1,0.25],[1,0.5],[1,0.75],[1,1],[0.75,1],[0.5,1],[0.25,1],[0,1],[0,0.75],[0,0.5],[0,0.25]];outlineConnect=0;gradientColor=none;html=1;whiteSpace=wrap;fontSize=12;fontStyle=0;container=1;pointerEvents=0;collapsible=0;recursiveResize=0;shape=mxgraph.aws4.group;grIcon=mxgraph.aws4.group_security_group;grStroke=0;strokeColor=#248814;fillColor=#E9F3E6;verticalAlign=top;align=left;spacingLeft=30;fontColor=#248814;dashed=0;" parent="imyj3Zp-e5OPN9J0XzXH-5" vertex="1">
          <mxGeometry x="140" y="90" width="230" height="320" as="geometry" />
        </mxCell>
        <mxCell id="imyj3Zp-e5OPN9J0XzXH-23" value="Webserver Security Group" style="fillColor=none;strokeColor=#DD3522;verticalAlign=top;fontStyle=0;fontColor=#DD3522;whiteSpace=wrap;html=1;" parent="imyj3Zp-e5OPN9J0XzXH-8" vertex="1">
          <mxGeometry x="10" y="200" width="210" height="100" as="geometry" />
        </mxCell>
        <mxCell id="8zWxKAhYYqGUHjHSyBKX-1" value="EC2 instance" style="sketch=0;outlineConnect=0;fontColor=#232F3E;gradientColor=none;fillColor=#ED7100;strokeColor=none;dashed=0;verticalLabelPosition=bottom;verticalAlign=top;align=center;html=1;fontSize=12;fontStyle=0;aspect=fixed;pointerEvents=1;shape=mxgraph.aws4.instance2;" parent="imyj3Zp-e5OPN9J0XzXH-8" vertex="1">
          <mxGeometry x="90" y="230" width="40" height="40" as="geometry" />
        </mxCell>
        <mxCell id="8yiQP57dy-SPFx4O3Euc-11" value="NAT gateway" style="sketch=0;outlineConnect=0;fontColor=#232F3E;gradientColor=none;fillColor=#8C4FFF;strokeColor=none;dashed=0;verticalLabelPosition=bottom;verticalAlign=top;align=center;html=1;fontSize=12;fontStyle=0;aspect=fixed;pointerEvents=1;shape=mxgraph.aws4.nat_gateway;" parent="imyj3Zp-e5OPN9J0XzXH-8" vertex="1">
          <mxGeometry x="160" y="10" width="40" height="40" as="geometry" />
        </mxCell>
        <mxCell id="B-BGR8SFoohpfeiMu-X7-1" value="Bastion host Security Group" style="fillColor=none;strokeColor=#DD3522;verticalAlign=top;fontStyle=0;fontColor=#DD3522;whiteSpace=wrap;html=1;" vertex="1" parent="imyj3Zp-e5OPN9J0XzXH-8">
          <mxGeometry x="10" y="90" width="210" height="100" as="geometry" />
        </mxCell>
        <mxCell id="B-BGR8SFoohpfeiMu-X7-2" value="Bastion host" style="sketch=0;outlineConnect=0;fontColor=#232F3E;gradientColor=none;fillColor=#ED7100;strokeColor=none;dashed=0;verticalLabelPosition=bottom;verticalAlign=top;align=center;html=1;fontSize=12;fontStyle=0;aspect=fixed;pointerEvents=1;shape=mxgraph.aws4.instance2;" vertex="1" parent="imyj3Zp-e5OPN9J0XzXH-8">
          <mxGeometry x="90" y="120" width="40" height="40" as="geometry" />
        </mxCell>
        <mxCell id="imyj3Zp-e5OPN9J0XzXH-11" value="Private subnet 1&lt;br&gt;10.0.2.0/24" style="points=[[0,0],[0.25,0],[0.5,0],[0.75,0],[1,0],[1,0.25],[1,0.5],[1,0.75],[1,1],[0.75,1],[0.5,1],[0.25,1],[0,1],[0,0.75],[0,0.5],[0,0.25]];outlineConnect=0;gradientColor=none;html=1;whiteSpace=wrap;fontSize=12;fontStyle=0;container=1;pointerEvents=0;collapsible=0;recursiveResize=0;shape=mxgraph.aws4.group;grIcon=mxgraph.aws4.group_security_group;grStroke=0;strokeColor=#147EBA;fillColor=#E6F2F8;verticalAlign=top;align=left;spacingLeft=30;fontColor=#147EBA;dashed=0;" parent="imyj3Zp-e5OPN9J0XzXH-5" vertex="1">
          <mxGeometry x="140" y="430" width="230" height="200" as="geometry" />
        </mxCell>
        <mxCell id="imyj3Zp-e5OPN9J0XzXH-13" value="Internet gateway" style="sketch=0;outlineConnect=0;fontColor=#232F3E;gradientColor=none;fillColor=#8C4FFF;strokeColor=none;dashed=0;verticalLabelPosition=bottom;verticalAlign=top;align=center;html=1;fontSize=12;fontStyle=0;aspect=fixed;pointerEvents=1;shape=mxgraph.aws4.internet_gateway;shadow=0;" parent="imyj3Zp-e5OPN9J0XzXH-5" vertex="1">
          <mxGeometry x="410" y="20" width="40" height="40" as="geometry" />
        </mxCell>
        <mxCell id="B-BGR8SFoohpfeiMu-X7-3" value="Private subnet 2&lt;br&gt;10.0.3.0/24" style="points=[[0,0],[0.25,0],[0.5,0],[0.75,0],[1,0],[1,0.25],[1,0.5],[1,0.75],[1,1],[0.75,1],[0.5,1],[0.25,1],[0,1],[0,0.75],[0,0.5],[0,0.25]];outlineConnect=0;gradientColor=none;html=1;whiteSpace=wrap;fontSize=12;fontStyle=0;container=1;pointerEvents=0;collapsible=0;recursiveResize=0;shape=mxgraph.aws4.group;grIcon=mxgraph.aws4.group_security_group;grStroke=0;strokeColor=#147EBA;fillColor=#E6F2F8;verticalAlign=top;align=left;spacingLeft=30;fontColor=#147EBA;dashed=0;" vertex="1" parent="imyj3Zp-e5OPN9J0XzXH-5">
          <mxGeometry x="490" y="430" width="230" height="200" as="geometry" />
        </mxCell>
        <mxCell id="B-BGR8SFoohpfeiMu-X7-8" value="DB subnet group" style="fillColor=none;strokeColor=#5A6C86;dashed=1;verticalAlign=top;fontStyle=0;fontColor=#5A6C86;whiteSpace=wrap;html=1;" vertex="1" parent="imyj3Zp-e5OPN9J0XzXH-5">
          <mxGeometry x="150" y="490" width="560" height="130" as="geometry" />
        </mxCell>
        <mxCell id="imyj3Zp-e5OPN9J0XzXH-1" value="VPC&lt;br&gt;10.0.0.0/16" style="points=[[0,0],[0.25,0],[0.5,0],[0.75,0],[1,0],[1,0.25],[1,0.5],[1,0.75],[1,1],[0.75,1],[0.5,1],[0.25,1],[0,1],[0,0.75],[0,0.5],[0,0.25]];outlineConnect=0;gradientColor=none;html=1;whiteSpace=wrap;fontSize=12;fontStyle=0;container=1;pointerEvents=0;collapsible=0;recursiveResize=0;shape=mxgraph.aws4.group;grIcon=mxgraph.aws4.group_vpc;strokeColor=#248814;fillColor=none;verticalAlign=top;align=left;spacingLeft=30;fontColor=#AAB7B8;dashed=0;" parent="imyj3Zp-e5OPN9J0XzXH-4" vertex="1">
          <mxGeometry x="60" y="70" width="720" height="610" as="geometry" />
        </mxCell>
        <mxCell id="5R6aJjAGNMI5OeQ1DKZp-3" value="RDS instance" style="sketch=0;outlineConnect=0;fontColor=#232F3E;gradientColor=none;fillColor=#2E27AD;strokeColor=none;dashed=0;verticalLabelPosition=bottom;verticalAlign=top;align=center;html=1;fontSize=12;fontStyle=0;aspect=fixed;pointerEvents=1;shape=mxgraph.aws4.rds_mysql_instance;" parent="imyj3Zp-e5OPN9J0XzXH-1" vertex="1">
          <mxGeometry x="205" y="500" width="40" height="40" as="geometry" />
        </mxCell>
        <mxCell id="8yiQP57dy-SPFx4O3Euc-5" value="DB Security Group" style="fillColor=none;strokeColor=#DD3522;verticalAlign=top;fontStyle=0;fontColor=#DD3522;whiteSpace=wrap;html=1;" parent="imyj3Zp-e5OPN9J0XzXH-1" vertex="1">
          <mxGeometry x="130" y="470" width="190" height="100" as="geometry" />
        </mxCell>
      </root>
    </mxGraphModel>
  </diagram>
</mxfile>
